<svg version="1" xmlns="http://www.w3.org/2000/svg" width="666.667" height="666.667" viewBox="0 0 500.000000 500.000000"><path d="M245 50.6c-9.8 3.2-13.4 6.2-17.1 13.9l-2.9 6v54.4l-49.7.3-49.8.3-8 2.8c-7.6 2.7-16.7 8.1-22.8 13.7-3.3 3-11.8 14.4-13.4 18-1.5 3.4-3.7 9.3-4 10.5-.1.5-.6 3.4-1.2 6.4-.8 3.6-1.1 41.4-1.1 116.6 0 106.2.1 111.5 1.9 118.6 1.1 4.1 3.2 9.6 4.7 12.4 3.7 6.6 13.8 16.3 20.5 19.7 11.9 5.9 4.7 5.7 147.9 5.7 128.6 0 131.7 0 138.2-1.9 9.3-2.8 15.3-6.4 22.1-13.3 6.7-6.9 10.4-13.4 12.9-22.7 1.6-6 1.7-15 1.5-121-.1-63-.5-115.4-.9-116.5-4.7-14.9-7.8-20.8-15.3-29.2-8.1-9.2-22-16.9-34.9-19.2-3.7-.7-23.3-1.1-52.3-1.1H275l-.1-27.3c-.1-14.9-.1-27.5-.1-27.8.2-2.2-7.1-12.8-10.4-15.1-6.1-4.1-14.2-5.9-19.4-4.2zm-56.8 171.3c6 3.1 12 9 14.9 14.9 3.3 6.5 3.4 19.6.2 26.2-2.6 5.4-10.3 13-15.7 15.5-5.3 2.4-15.6 3.1-20.9 1.5-14.4-4.6-23.5-17.5-22.5-31.8.9-12 7.1-21 18.3-26.4 5.3-2.6 6.8-2.9 13.5-2.5 5.3.2 9 1 12.2 2.6zm150 0c17 8.1 23 30 12.4 45.6-1.1 1.6-2.8 3.6-3.8 4.3-.9.7-2.3 1.9-3.1 2.7-5.8 5.7-19.1 8.2-28 5.1-8.9-3-14.3-8-18.9-17.4-2.8-5.8-3-6.9-2.5-14 .3-5.1 1.2-9.1 2.7-11.9 2.8-5.5 11.4-13.3 17.1-15.5 6.1-2.4 17.8-1.9 24.1 1.1zM200 362.5V375h-50v-25h50v12.5zm75 0V375h-50v-25h50v12.5zm75 0V375h-50v-25h50v12.5zM19.5 225.7c-7.4 1.6-15.1 8.4-17.8 15.8C.1 245.9 0 251 .2 301.4c.3 54.2.3 55.2 2.5 59.6 2.4 5.2 6.1 8.7 11.8 11.5 3.4 1.7 6.5 2.1 19.8 2.3l15.7.3V225l-14.2.1c-7.9.1-15.2.3-16.3.6zM450 300v75.2l15.8-.4c14.4-.3 16.1-.5 20.5-2.8 5.5-2.8 9.6-7.4 12-13.8 1.6-3.9 1.7-10 1.7-58.3-.1-47.6-.3-54.5-1.7-58.2-2.4-6-6.9-11.4-11.1-13.3-2-.9-4.4-1.9-5.3-2.4-.8-.4-8.4-.9-16.7-.9l-15.2-.2V300z"/></svg>